<svg version="1.1" xmlns="http://www.w3.org/2000/svg" xmlns:xlink="http://www.w3.org/1999/xlink" viewBox="0 0 192 192"><g fill="none" fill-rule="nonzero" stroke="none" stroke-width="1" stroke-linecap="butt" stroke-linejoin="miter" stroke-miterlimit="10" stroke-dasharray="" stroke-dashoffset="0" font-family="none" font-weight="none" font-size="none" text-anchor="none" style="mix-blend-mode: normal"><path d="M0,192v-192h192v192z" fill="none"></path><g id="Layer_1"><g><g fill="#ffffff"><ellipse cx="1.41359" cy="91.92413" transform="rotate(-45) scale(1.49999,1.49999)" rx="45" ry="45"></ellipse></g><g fill="#e67e22"><path d="M165.75,85.95c-21.45,-20.85 -47.85,-31.95 -49.2,-32.55l-9.3,-3.9c-3.15,7.95 -4.8,16.2 -5.7,23.55l5.85,2.4c0.3,0.15 32.1,13.5 50.25,36.9l4.95,6.3c3.75,-10.35 4.8,-21.75 3.15,-32.7z"></path></g><g fill="#e67e22"><path d="M53.55,108l1.2,9.9c8.55,-1.35 16.5,-4.2 23.25,-7.2l-0.6,-5.7c0,-0.3 -4.05,-34.65 7.65,-61.8l4.65,-11.1l-4.95,-2.1c-0.15,0 -0.15,0 -0.3,0c-15.15,3.3 -26.7,15.6 -29.25,30.9c-4.2,24.45 -1.8,45.75 -1.65,47.1z"></path></g><g fill="#e67e22"><path d="M140.4,128.25l-2.25,-3.15c-4.95,-5.4 -10.35,-9.9 -15.45,-13.5l-6.15,4.5c-0.3,0.15 -28.2,20.7 -57.45,24.3l-3.6,0.45c-2.55,0.3 -3.6,3.45 -1.65,5.25c1.35,1.2 2.55,2.4 3.45,3c6.75,5.4 14.4,9.15 22.2,11.55c27.9,-7.95 50.1,-24.3 51.3,-25.2z"></path></g><g fill="#e67e22"><path d="M166.5,93.9c0,-1.35 -0.15,-2.55 -0.15,-3.9c0,0 0,0 0,-0.15c-0.15,-1.35 -0.3,-2.7 -0.45,-4.2c-6.15,-6 -12.6,-11.1 -18.9,-15.45c-1.5,8.1 -4.8,16.2 -8.7,23.25c6.9,5.25 13.8,11.55 19.5,18.9l4.95,6.3v0c0.9,-2.55 1.65,-5.25 2.4,-7.95c0,-0.15 0,-0.3 0.15,-0.45c0.3,-1.2 0.45,-2.4 0.75,-3.6c0,-0.15 0,-0.3 0,-0.3c0.45,-2.7 0.75,-5.4 0.75,-8.1c0,-0.15 0,-0.15 0,-0.3c0,-1.2 0,-2.4 0,-3.6c-0.3,0 -0.3,-0.15 -0.3,-0.45z"></path></g><g fill="#333333"><path d="M184.5,100.5c-2.55,0 -4.5,-1.95 -4.5,-4.5c0,-10.5 -1.95,-20.7 -5.85,-30.3c-0.9,-2.25 0.15,-4.95 2.55,-5.85c2.25,-0.9 4.95,0.15 5.85,2.55c4.35,10.65 6.45,22.05 6.45,33.75c0,2.4 -1.95,4.35 -4.5,4.35z"></path></g><path d="M149.85,45.15c-13.95,-13.95 -33.15,-21.6 -52.95,-21c-0.15,0 -0.3,0 -0.45,0h-60.3c-2.4,0 -4.65,1.8 -4.8,4.2c-0.15,2.55 1.95,4.8 4.5,4.8h59.85c0.3,0 0.6,0 0.75,0c3.9,-0.15 7.65,0.15 11.4,0.6c1.05,0.15 1.65,1.35 1.05,2.25l-0.3,0.6c-12.45,19.5 -14.7,44.85 -14.55,56.7c0,0.45 -0.15,0.9 -0.6,1.2c-17.1,13.2 -30.9,17.7 -39.6,19.05c-2.85,0.45 -5.85,0.6 -8.85,0.6h-33c-2.4,0 -4.65,1.8 -4.8,4.2c0.15,2.55 2.25,4.65 4.8,4.65h33.3c3.3,0 6.6,-0.15 10.05,-0.6h0.15c9.6,-1.5 24.9,-6.45 43.35,-20.4c0.6,0 1.05,-0.15 1.65,-0.15c9,4.65 31.8,18.9 42.6,37.65c-0.15,0.75 -0.15,1.2 -0.3,1.8c-12.3,11.85 -28.95,18.3 -46.05,17.7c-0.3,0 -0.45,0 -0.75,0h-56.7c-2.4,0 -4.65,1.8 -4.8,4.2c-0.15,2.55 1.95,4.8 4.5,4.8h57.45c0.15,0 0.3,0 0.45,0c19.8,0.6 39,-7.05 52.95,-21c13.65,-13.65 21.15,-31.8 21.15,-51c0,-19.2 -7.5,-37.35 -21.15,-50.85zM104.1,93.45c-0.45,-0.3 -0.75,-0.75 -0.75,-1.35c0,-10.5 1.95,-33.45 13.2,-51l2.25,-3.75c0.3,-0.6 1.2,-0.9 1.8,-0.6c8.55,3.15 16.5,8.1 22.95,14.55c11.85,12 18.45,27.9 18.45,44.7c0,12.9 -3.75,25.05 -10.95,35.4c-0.6,0.9 -1.95,0.9 -2.55,0c-12.6,-19.2 -34.95,-33 -44.4,-37.95z" fill="#333333"></path><path d="M54.3,45c-1.8,-1.65 -4.65,-1.5 -6.3,0.3c-6.6,6.6 -11.7,14.4 -15.3,22.8c-0.3,0.6 -0.75,0.9 -1.35,0.9h-25.05c-2.4,0 -4.65,1.8 -4.8,4.2c-0.15,2.7 1.95,4.8 4.5,4.8h21.45c0.9,0 1.65,0.9 1.5,1.8c-1.35,6 -2.1,12.15 -1.8,18.45c0.15,2.4 2.1,4.35 4.5,4.35h0.15c2.55,-0.15 4.5,-2.1 4.35,-4.65c-0.6,-17.55 6,-34.2 18.45,-46.65c1.65,-1.65 1.65,-4.65 -0.3,-6.3z" fill="#333333"></path><g fill="#333333"><circle cx="9" cy="19" transform="scale(1.5,1.5)" r="3"></circle></g></g></g></g></svg>